<svg xmlns="http://www.w3.org/2000/svg" xmlns:xlink="http://www.w3.org/1999/xlink" width="1936" height="1073" viewBox="0 0 1936 1073"><defs><clipPath id="a"><rect width="1936" height="1073" transform="translate(3603 2549)" fill="none" stroke="#707070" stroke-width="1"/></clipPath></defs><g transform="translate(-3603 -2549)" clip-path="url(#a)"><g transform="translate(3585.39 2577.84)"><path d="M1835.75,959.58a12.785,12.785,0,1,1-16.7,6.93c0-.01,0-.01.01-.02A12.827,12.827,0,0,1,1835.75,959.58Z" fill="none" stroke="#bcbcbc" stroke-miterlimit="10" stroke-width="1"/><path d="M1608.73,619.71a12.794,12.794,0,1,1-16.71,6.94v-.01a12.789,12.789,0,0,1,16.71-6.93Z" fill="none" stroke="#bcbcbc" stroke-miterlimit="10" stroke-width="1"/><path d="M1820.61,579.28a12.794,12.794,0,1,1-16.71,6.94v-.01a12.789,12.789,0,0,1,16.71-6.93Z" fill="none" stroke="#bcbcbc" stroke-miterlimit="10" stroke-width="1"/><path d="M1568.97,136.22a12.794,12.794,0,1,1-16.71,6.94v-.01a12.789,12.789,0,0,1,16.71-6.93Z" fill="none" stroke="#bcbcbc" stroke-miterlimit="10" stroke-width="1"/><path d="M1333.85,51.82a12.794,12.794,0,1,1-16.71,6.94v-.01a12.781,12.781,0,0,1,16.71-6.93Z" fill="none" stroke="#bcbcbc" stroke-miterlimit="10" stroke-width="1"/><path d="M1053.53,14.96a12.79,12.79,0,1,1-16.7,6.96A12.792,12.792,0,0,1,1053.53,14.96Z" fill="none" stroke="#bcbcbc" stroke-miterlimit="10" stroke-width="1"/><path d="M581.56,627.1a12.785,12.785,0,1,1-16.7,6.93c0-.01,0-.01.01-.02A12.848,12.848,0,0,1,581.56,627.1Z" fill="none" stroke="#bcbcbc" stroke-miterlimit="10" stroke-width="1"/><path d="M365.76,978.37a12.794,12.794,0,1,1-16.71,6.94v-.01A12.822,12.822,0,0,1,365.76,978.37Z" fill="none" stroke="#bcbcbc" stroke-miterlimit="10" stroke-width="1"/><path d="M117.42,513.88a12.785,12.785,0,1,1-16.7,6.93v-.01A12.8,12.8,0,0,1,117.42,513.88Z" fill="none" stroke="#bcbcbc" stroke-miterlimit="10" stroke-width="1"/><path d="M665.19,390.83a12.8,12.8,0,1,1-16.72,6.94h0A12.817,12.817,0,0,1,665.19,390.83Z" fill="none" stroke="#bcbcbc" stroke-miterlimit="10" stroke-width="1"/><path d="M290.78,294.29a12.779,12.779,0,1,1-16.69,6.93h0A12.784,12.784,0,0,1,290.78,294.29Z" fill="none" stroke="#bcbcbc" stroke-miterlimit="10" stroke-width="1"/><path d="M1069.02,657.83a12.783,12.783,0,1,1-16.73,6.93A12.783,12.783,0,0,1,1069.02,657.83Z" fill="none" stroke="#bcbcbc" stroke-miterlimit="10" stroke-width="1"/><path d="M854.45,233.62a12.782,12.782,0,1,1-16.7,6.92v-.01A12.81,12.81,0,0,1,854.45,233.62Z" fill="none" stroke="#bcbcbc" stroke-miterlimit="10" stroke-width="1"/><path d="M525.8,84.38a12.782,12.782,0,1,1-16.7,6.92v-.01A12.822,12.822,0,0,1,525.8,84.38Z" fill="none" stroke="#bcbcbc" stroke-miterlimit="10" stroke-width="1"/><path d="M360.87,990.19,711.59,591.1,660.81,402.85,384.87,759.24,229.84,726.07,146.43,936.56,384.87,759.24,283.01,567.01,229.84,726.07,112.52,525.7,285.9,306.09,229.84,726.07,360.87,990.19,146.43,936.56" fill="none" stroke="#bcbcbc" stroke-miterlimit="10" stroke-width="1"/><path d="M285.9,306.09l98.97,453.15-24,230.95L283.01,567.01l171.75-76.3L285.9,306.09l374.91,96.76L879.2,524.08,711.59,591.1,576.67,638.91l-293.66-71.9" fill="none" stroke="#bcbcbc" stroke-miterlimit="10" stroke-width="1"/><line x1="329.73" y1="255.35" transform="translate(576.67 638.91)" fill="none" stroke="#bcbcbc" stroke-miterlimit="10" stroke-width="1"/><line x2="395.15" y2="63.48" transform="translate(1208.7 568.04)" fill="none" stroke="#bcbcbc" stroke-miterlimit="10" stroke-width="1"/><path d="M1089.92,283.89,879.2,524.08l184.95,145.56" fill="none" stroke="#bcbcbc" stroke-miterlimit="10" stroke-width="1"/><path d="M384.87,759.24l191.8-120.33L454.76,490.71,711.59,591.1,906.4,894.26l157.75-224.62,144.55-101.6" fill="none" stroke="#bcbcbc" stroke-miterlimit="10" stroke-width="1"/><path d="M752.21,43.75l296.45-16.96L849.58,245.41,660.81,402.85l420.72,54.08L849.58,245.41l240.34,38.48-41.26-257.1" fill="none" stroke="#bcbcbc" stroke-miterlimit="10" stroke-width="1"/><path d="M1655.48,287.05l-376.13-.11-189.43-3.05" fill="none" stroke="#bcbcbc" stroke-miterlimit="10" stroke-width="1"/><path d="M1691.94,820.76l138.73,150.78-27.5-226.1" fill="none" stroke="#bcbcbc" stroke-miterlimit="10" stroke-width="1"/><line x1="197.82" y2="169.99" transform="translate(1081.53 286.94)" fill="none" stroke="#bcbcbc" stroke-miterlimit="10" stroke-width="1"/><path d="M1603.85,631.52l88.09,189.24,111.23-75.32L1667.5,483.91,1279.35,287.05" fill="none" stroke="#bcbcbc" stroke-miterlimit="10" stroke-width="1"/><path d="M1048.66,26.79l230.69,260.26,49.61-223.41,235.12,84.4L1780.12,48.01,1655.48,286.94l12.02,196.97L1815.72,591.1l-211.87,40.42,63.65-147.61,198.75-145.07-210.77-51.9-91.4-138.9L1279.35,287.05" fill="none" stroke="#bcbcbc" stroke-miterlimit="10" stroke-width="1"/><path d="M752.22,43.75,520.91,96.2,305.48,79.69,285.9,306.09l266.83-34.88L664.04,114.62,520.91,96.2,176.11,210.69l129.37-131L327.28,3.3,552.73,271.21l-97.97,219.5" fill="none" stroke="#bcbcbc" stroke-miterlimit="10" stroke-width="1"/><path d="M384.87,759.24l204.6,188.88,108.5-100.6L711.59,591.1,589.47,948.12" fill="none" stroke="#bcbcbc" stroke-miterlimit="10" stroke-width="1"/><line y1="209.89" x2="235.01" transform="translate(285.9 96.2)" fill="none" stroke="#bcbcbc" stroke-miterlimit="10" stroke-width="1"/><path d="M1780.12,48.01l86.13,290.83L1208.7,568.04,1081.53,456.93l-17.38,212.71L711.59,591.1,849.58,245.41,664.04,114.62l-3.23,288.23,91.4-359.1,337.71,240.14-8.39,173.04L879.2,524.08l27.2,370.18" fill="none" stroke="#bcbcbc" stroke-miterlimit="10" stroke-width="1"/><circle cx="6.8" cy="6.8" r="6.8" transform="translate(105.74 518.89)" fill="#bcbcbc"/><circle cx="6.8" cy="6.8" r="6.8" transform="translate(279.1 299.29)" fill="#bcbcbc"/><circle cx="5.36" cy="5.36" r="5.36" transform="translate(277.65 561.66)" fill="#bcbcbc"/><circle cx="6.82" cy="6.82" r="6.82" transform="translate(704.77 584.28)" fill="#bcbcbc"/><circle cx="4.71" cy="4.71" r="4.71" transform="translate(901.69 889.54)" fill="#bcbcbc"/><circle cx="3.4" cy="3.4" r="3.4" transform="translate(1688.54 817.36)" fill="#bcbcbc"/><circle cx="6.28" cy="6.28" r="6.28" transform="translate(1796.89 739.16)" fill="#bcbcbc"/><circle cx="6.81" cy="6.81" r="6.81" transform="translate(654 396.04)" fill="#bcbcbc"/><circle cx="6.81" cy="6.81" r="6.81" transform="translate(872.39 517.26)" fill="#bcbcbc"/><circle cx="7.71" cy="7.71" r="7.71" transform="translate(1073.82 449.22)" fill="#bcbcbc"/><circle cx="6.8" cy="6.8" r="6.8" transform="translate(1057.32 662.84)" fill="#bcbcbc"/><circle cx="6.8" cy="6.8" r="6.8" transform="translate(1808.92 584.3)" fill="#bcbcbc"/><circle cx="6.8" cy="6.8" r="6.8" transform="translate(1201.91 561.24)" fill="#bcbcbc"/><circle cx="6.8" cy="6.8" r="6.8" transform="translate(1272.55 280.25)" fill="#bcbcbc"/><circle cx="6.8" cy="6.8" r="6.8" transform="translate(1660.7 477.11)" fill="#bcbcbc"/><circle cx="5.22" cy="5.22" r="5.22" transform="translate(1650.26 281.72)" fill="#bcbcbc"/><circle cx="5.22" cy="5.22" r="5.22" transform="translate(1861.03 333.62)" fill="#bcbcbc"/><circle cx="6.8" cy="6.8" r="6.8" transform="translate(1597.05 624.72)" fill="#bcbcbc"/><circle cx="6.8" cy="6.8" r="6.8" transform="translate(1824.05 964.6)" fill="#bcbcbc"/><circle cx="6.81" cy="6.81" r="6.81" transform="translate(842.77 238.6)" fill="#bcbcbc"/><circle cx="6.81" cy="6.81" r="6.81" transform="translate(1041.85 19.98)" fill="#bcbcbc"/><circle cx="6.81" cy="6.81" r="6.81" transform="translate(1083.11 277.08)" fill="#bcbcbc"/><circle cx="6.81" cy="6.81" r="6.81" transform="translate(569.88 632.12)" fill="#bcbcbc"/><circle cx="6.8" cy="6.8" r="6.8" transform="translate(447.96 483.91)" fill="#bcbcbc"/><circle cx="6.8" cy="6.8" r="6.8" transform="translate(545.93 264.41)" fill="#bcbcbc"/><circle cx="6.8" cy="6.8" r="6.8" transform="translate(691.17 840.72)" fill="#bcbcbc"/><circle cx="6.8" cy="6.8" r="6.8" transform="translate(582.67 941.32)" fill="#bcbcbc"/><circle cx="4.86" cy="4.86" r="4.86" transform="translate(659.18 109.76)" fill="#bcbcbc"/><circle cx="4.26" cy="4.26" r="4.26" transform="translate(747.96 39.49)" fill="#bcbcbc"/><circle cx="6.8" cy="6.8" r="6.8" transform="translate(514.11 89.4)" fill="#bcbcbc"/><circle cx="6.8" cy="6.8" r="6.8" transform="translate(1557.28 141.24)" fill="#bcbcbc"/><circle cx="6.8" cy="6.8" r="6.8" transform="translate(1322.16 56.84)" fill="#bcbcbc"/><circle cx="6.8" cy="6.8" r="6.8" transform="translate(298.68 72.89)" fill="#bcbcbc"/><circle cx="4.57" cy="4.57" r="4.57" transform="translate(225.27 721.5)" fill="#bcbcbc"/><circle cx="4.57" cy="4.57" r="4.57" transform="translate(171.54 206.12)" fill="#bcbcbc"/><circle cx="4.57" cy="4.57" r="4.57" transform="translate(1775.55 43.44)" fill="#bcbcbc"/><circle cx="4.57" cy="4.57" r="4.57" transform="translate(322.71 -1.27)" fill="#bcbcbc"/><circle cx="6.79" cy="6.79" r="6.79" transform="translate(378.08 752.45)" fill="#bcbcbc"/><circle cx="6.79" cy="6.79" r="6.79" transform="translate(354.08 983.4)" fill="#bcbcbc"/><circle cx="4.27" cy="4.27" r="4.27" transform="translate(142.16 932.28)" fill="#bcbcbc"/></g></g></svg>